<svg width="300" height="275" xmlns="http://www.w3.org/2000/svg" xmlns:svg="http://www.w3.org/2000/svg">
 <g>
  <title>Layer 1</title>
  <g id="svg_1" transform="matrix(0.547157,0,0,0.547157,115.928,115.928) ">
   <g id="svg_2">
    <g id="svg_3">
     <rect id="svg_4" fill="#F3C46A" class="active-path" height="47.164" width="15.15" y="-195.80237" x="54.70144"/>
    </g>
   </g>
   <g id="svg_5">
    <g id="svg_6">
     <rect id="svg_7" fill="#F3C46A" class="active-path" height="15.149" width="47.162" transform="matrix(0.4198,-0.9076,0.9076,0.4198,131.1098,323.2903) " y="-215.2326" x="410.07822"/>
    </g>
   </g>
   <g id="svg_8">
    <g id="svg_9">
     <rect id="svg_10" fill="#F3C46A" class="active-path" height="47.162" width="15.15" transform="matrix(0.9076,-0.4198,0.4198,0.9076,-6.9255,86.7289) " y="-242.37963" x="101.0979"/>
    </g>
   </g>
   <g id="svg_11">
    <g id="svg_12">
     <rect id="svg_13" fill="#F3C46A" class="active-path" height="12.181" width="15.15" transform="matrix(0.4229,-0.9062,0.9062,0.4229,-72.4355,246.0279) " y="-93.34125" x="263.69108"/>
    </g>
   </g>
   <g id="svg_14">
    <g id="svg_15">
     <rect id="svg_16" fill="#F3C46A" class="active-path" height="12.181" width="15.15" transform="matrix(0.4229,-0.9062,0.9062,0.4229,-83.9752,276.0825) " y="-69.25425" x="281.51608"/>
    </g>
   </g>
   <g id="svg_17">
    <g id="svg_18">
     <rect id="svg_19" fill="#F3C46A" class="active-path" height="12.181" width="15.15" transform="matrix(0.4229,-0.9062,0.9062,0.4229,-132.3029,314.0963) " y="-12.30525" x="287.19808"/>
    </g>
   </g>
   <g id="svg_20">
    <g id="svg_21">
     <rect id="svg_22" fill="#F3C46A" class="active-path" height="12.181" width="15.15" transform="matrix(0.4229,-0.9062,0.9062,0.4229,-176.3015,262.3353) " y="-3.64225" x="224.56008"/>
    </g>
   </g>
   <g id="svg_23">
    <g id="svg_24">
     <rect id="svg_25" fill="#F3C46A" class="active-path" height="12.181" width="15.15" transform="matrix(0.4229,-0.9062,0.9062,0.4229,-217.8169,300.2174) " y="47.89275" x="233.54408"/>
    </g>
   </g>
   <g id="svg_26">
    <g id="svg_27">
     <path id="svg_28" fill="#F3C46A" class="active-path" d="m311.86344,215.51163l-50.982,-0.205l-37.484,-80.319l10.657,-15.02c16.061,-22.637 18.748,-52.325 7.008,-77.477l-75.221,-161.182l-103.57,48.334l-103.568,-48.334l-75.224,161.182c-11.738,25.153 -9.052,54.84 7.009,77.477l10.657,15.019l-37.484,80.319l-50.98,0.205l-6.41,13.735l97.297,45.408l6.408,-13.735l-32.587,-39.205l37.484,-80.319l18.356,-1.479c27.667,-2.229 52.146,-19.238 63.885,-44.39l65.157,-139.612l65.156,139.611c11.738,25.152 36.217,42.162 63.885,44.39l18.357,1.479l37.484,80.319l-32.587,39.206l6.408,13.735l97.296,-45.408l-6.407,-13.734zm-434.062,30.398l-32.949,-15.377l20.101,-0.082l12.848,15.459zm105.587,-156.792c-9.439,20.226 -29.124,33.905 -51.373,35.697l-18.455,1.487l-10.714,-15.1c-12.917,-18.203 -15.076,-42.077 -5.637,-62.304l55.421,-118.75c0.659,0.733 1.263,1.511 1.923,2.363c2.614,3.374 5.869,7.574 13.773,11.263c7.905,3.689 13.214,3.484 17.479,3.323c3.432,-0.131 5.911,-0.226 10.493,1.913c4.583,2.139 6.103,4.101 8.206,6.814c2.615,3.374 5.869,7.574 13.775,11.264c7.906,3.688 13.215,3.487 17.481,3.324c1.077,-0.041 2.06,-0.07 3.045,-0.036l-55.417,118.742zm62.102,-133.07c-4.195,-1.001 -7.484,-0.883 -10.31,-0.775c-3.431,0.129 -5.911,0.225 -10.495,-1.914c-4.583,-2.139 -6.102,-4.101 -8.206,-6.814c-2.615,-3.374 -5.869,-7.574 -13.775,-11.263c-7.906,-3.69 -13.216,-3.487 -17.479,-3.323c-3.432,0.13 -5.912,0.226 -10.493,-1.913c-4.582,-2.139 -6.102,-4.1 -8.206,-6.814c-1.732,-2.235 -3.754,-4.833 -7.214,-7.404l6.712,-14.383l86.179,40.219l-6.713,14.384zm37.596,2.155c-0.662,0.853 -1.266,1.632 -1.924,2.365l-8.822,-18.904l86.18,-40.219l8.818,18.896c-0.984,0.034 -1.967,0.005 -3.043,-0.036c-4.267,-0.165 -9.576,-0.367 -17.48,3.323c-7.905,3.69 -11.159,7.889 -13.774,11.263c-2.103,2.715 -3.623,4.675 -8.204,6.813c-4.582,2.139 -7.063,2.043 -10.495,1.913c-4.265,-0.166 -9.574,-0.367 -17.481,3.324c-7.908,3.69 -11.161,7.887 -13.775,11.262zm127.898,168.099l-18.455,-1.487c-22.249,-1.793 -41.934,-15.471 -51.374,-35.697l-53.311,-114.23c3.461,-2.572 5.483,-5.17 7.216,-7.405c2.104,-2.715 3.624,-4.675 8.207,-6.814c4.583,-2.14 7.061,-2.045 10.495,-1.913c4.268,0.164 9.574,0.366 17.481,-3.324c7.904,-3.69 11.158,-7.889 13.773,-11.263c2.103,-2.715 3.622,-4.675 8.205,-6.814c4.582,-2.139 7.061,-2.042 10.494,-1.913c2.825,0.108 6.115,0.226 10.309,-0.774l53.311,114.231c9.439,20.226 7.279,44.1 -5.637,62.303l-10.714,15.1zm35.757,119.608l12.849,-15.458l20.1,0.082l-32.949,15.376z"/>
    </g>
   </g>
   <g id="svg_29">
    <g id="svg_30">
     <rect id="svg_31" fill="#F3C46A" class="active-path" height="15.15" width="12.181" transform="matrix(0.9062,-0.4229,0.4229,0.9062,-58.8134,177.9823) " y="-64.20768" x="281.66666"/>
    </g>
   </g>
   <g id="svg_32">
    <g id="svg_33">
     <rect id="svg_34" fill="#F3C46A" class="active-path" height="15.15" width="12.181" transform="matrix(0.9062,-0.4229,0.4229,0.9062,-48.0515,160.3) " y="-97.30368" x="247.19566"/>
    </g>
   </g>
   <g id="svg_35">
    <g id="svg_36">
     <rect id="svg_37" fill="#F3C46A" class="active-path" height="15.15" width="12.181" transform="matrix(0.9062,-0.4229,0.4229,0.9062,-67.488,159.6385) " y="-53.82968" x="235.98666"/>
    </g>
   </g>
   <g id="svg_38">
    <g id="svg_39">
     <rect id="svg_40" fill="#F3C46A" class="active-path" height="15.15" width="12.181" transform="matrix(0.9062,-0.4229,0.4229,0.9062,-86.3481,179.1981) " y="-1.54368" x="270.63866"/>
    </g>
   </g>
   <g id="svg_41">
    <g id="svg_42">
     <rect id="svg_43" fill="#F3C46A" class="active-path" height="15.15" width="12.181" transform="matrix(0.9062,-0.4229,0.4229,0.9062,-86.4527,194.9959) " y="6.59032" x="306.18866"/>
    </g>
   </g>
  </g>
 </g>
</svg>